<svg width="65" height="23" viewBox="0 0 65 23" fill="none" xmlns="http://www.w3.org/2000/svg">
<path d="M5.62708 22.2467H1.32128V7.53995H5.62708V22.2467ZM5.99881 2.66833C5.99881 3.46495 5.76132 4.06752 5.28634 4.47604C4.81136 4.88456 4.20214 5.08882 3.45869 5.08882C2.7359 5.08882 2.13701 4.88456 1.66203 4.47604C1.18704 4.06752 0.949554 3.46495 0.949554 2.66833C0.949554 1.89214 1.18704 1.29978 1.66203 0.891264C2.13701 0.482743 2.7359 0.278482 3.45869 0.278482C4.18149 0.278482 4.78038 0.482743 5.25536 0.891264C5.75099 1.29978 5.99881 1.89214 5.99881 2.66833Z" fill="#333333"/>
<path d="M10.4522 3.25047L14.7271 2.23938V7.53995H19.4356V11.1247H14.7271V16.8849C14.7271 18.3555 15.5221 19.0909 17.1123 19.0909C18.0623 19.0909 18.9606 18.9275 19.8073 18.6007V22.0322C18.5682 22.4612 17.2362 22.6757 15.8113 22.6757C14.2418 22.6757 12.9511 22.2774 11.9391 21.4807C10.9479 20.6841 10.4522 19.4279 10.4522 17.7121V11.1247H7.9431V7.53995H10.4522V3.25047Z" fill="#333333"/>
<path d="M26.5903 22.2467H22.2845V7.53995H26.0947V9.25574C26.5696 8.70423 27.2202 8.21401 28.0462 7.78506C28.8723 7.33569 29.8016 7.111 30.8341 7.111C32.8786 7.111 34.3965 7.83613 35.3878 9.28638C36.8953 7.83613 38.5474 7.111 40.3441 7.111C42.244 7.111 43.638 7.70336 44.526 8.88807C45.4347 10.0524 45.889 11.4005 45.889 12.9324V22.2467H41.6142V13.2082C41.6142 12.4524 41.3973 11.8601 40.9636 11.4311C40.5506 11.0022 39.993 10.7877 39.2909 10.7877C38.1964 10.7877 37.2154 11.2779 36.3481 12.2584C36.3687 12.4014 36.379 12.626 36.379 12.9324V22.2467H32.1042V13.2082C32.1042 12.4524 31.8874 11.8601 31.4537 11.4311C31.0407 11.0022 30.4831 10.7877 29.7809 10.7877C28.5625 10.7877 27.499 11.38 26.5903 12.5648V22.2467Z" fill="#333333"/>
<path d="M50.9382 20.6228C49.3481 19.2543 48.553 17.3445 48.553 14.8933C48.553 12.4422 49.3481 10.5324 50.9382 9.16382C52.5284 7.79527 54.4696 7.111 56.7619 7.111C59.0749 7.111 61.0161 7.79527 62.5856 9.16382C64.1757 10.5324 64.9708 12.4422 64.9708 14.8933C64.9708 17.3445 64.1757 19.2543 62.5856 20.6228C61.0161 21.9914 59.0749 22.6757 56.7619 22.6757C54.4696 22.6757 52.5284 21.9914 50.9382 20.6228ZM59.5808 17.7734C60.2623 17.0176 60.6031 16.0576 60.6031 14.8933C60.6031 13.729 60.2623 12.7792 59.5808 12.0439C58.8993 11.2881 57.9597 10.9102 56.7619 10.9102C55.5641 10.9102 54.6245 11.2881 53.943 12.0439C53.2822 12.7792 52.9517 13.729 52.9517 14.8933C52.9517 16.0576 53.2822 17.0176 53.943 17.7734C54.6245 18.5087 55.5641 18.8764 56.7619 18.8764C57.9597 18.8764 58.8993 18.5087 59.5808 17.7734Z" fill="#333333"/>
</svg>
