<svg width="43" height="23" viewBox="0 0 43 23" fill="none" xmlns="http://www.w3.org/2000/svg">
<path d="M5.13344 15.2467H0.827637V0.539946H4.63781V2.25574C5.11279 1.70423 5.76331 1.21401 6.58936 0.785058C7.41542 0.335685 8.34473 0.110998 9.37729 0.110998C11.4218 0.110998 12.9397 0.836123 13.9309 2.28637C15.4385 0.836123 17.0906 0.110998 18.8872 0.110998C20.7872 0.110998 22.1811 0.703355 23.0691 1.88807C23.9778 3.05235 24.4321 4.40047 24.4321 5.93243V15.2467H20.1573V6.20818C20.1573 5.45241 19.9405 4.86006 19.5068 4.43111C19.0938 4.00216 18.5362 3.78769 17.834 3.78769C16.7395 3.78769 15.7586 4.27792 14.8912 5.25837C14.9119 5.40135 14.9222 5.62604 14.9222 5.93243V15.2467H10.6474V6.20818C10.6474 5.45241 10.4305 4.86006 9.99683 4.43111C9.58381 4.00216 9.02622 3.78769 8.32408 3.78769C7.10565 3.78769 6.0421 4.38005 5.13344 5.56476V15.2467Z" fill="#333333"/>
<path d="M34.5437 10.467L38.23 0.539946H42.6907L36.0926 17.0238C34.6263 20.5983 32.4889 22.3856 29.6803 22.3856C29.0814 22.3856 28.307 22.2733 27.357 22.0486V18.5251C28.0385 18.6681 28.6271 18.7396 29.1227 18.7396C30.6922 18.7396 31.8694 17.6672 32.6541 15.5225L32.6851 15.4612L25.6533 0.539946H30.2069L34.5437 10.467Z" fill="#333333"/>
</svg>
